<svg width="64" height="64" viewBox="0 0 64 64" version="1.1" xmlns="http://www.w3.org/2000/svg" xmlns:xlink="http://www.w3.org/1999/xlink">
<title>stopwatch</title>
<desc>Created using Figma</desc>
<g id="Canvas" transform="translate(159 -887)">
<g id="stopwatch">
<g id="Group">
<g id="Vector">
<use xlink:href="#path0_fill" transform="translate(-159 887)"/>
</g>
<g id="Vector">
<use xlink:href="#path1_fill" transform="translate(-154.259 901)"/>
</g>
<g id="Vector">
<use xlink:href="#path2_fill" transform="translate(-110.803 906.601)"/>
</g>
<g id="Vector">
<use xlink:href="#path3_fill" transform="translate(-128.185 905)"/>
</g>
</g>
</g>
</g>
<defs>
<path id="path0_fill" d="M 54.6274 17.9081C 52.944 16.4879 51.1058 15.2458 49.1455 14.192L 51.2844 11.066L 53.676 12.231C 53.8627 12.322 54.0664 12.3651 54.2676 12.3651C 54.6772 12.3651 55.0756 12.1857 55.2951 11.865C 55.6224 11.3867 55.4281 10.7751 54.8613 10.499L 48.0639 7.18775C 47.4969 6.91137 46.7721 7.07538 46.4449 7.55375C 46.1176 8.032 46.3119 8.64363 46.8787 8.91975L 49.2317 10.066L 47.1003 13.1809C 42.8501 11.2567 38.1151 10.1706 33.1852 10.0201L 33.1852 9.89937C 35.8868 9.43487 37.9259 7.41462 37.9259 5C 37.9259 2.243 35.2676 0 32 0C 28.7324 0 26.0741 2.243 26.0741 5C 26.0741 7.4145 28.1132 9.43487 30.8148 9.89937L 30.8148 10.0201C 22.712 10.2675 15.1363 13.045 9.37259 17.9081C 3.32859 23.0079 0 29.7881 0 37C 0 44.2119 3.32859 50.9922 9.37259 56.0919C 15.4166 61.1915 23.4524 64 32 64C 40.5476 64 48.5834 61.1915 54.6274 56.0919C 60.6714 50.9922 64 44.2119 64 37C 64 29.7881 60.6714 23.0079 54.6274 17.9081ZM 28.4444 5C 28.4444 3.34588 30.0396 2 32 2C 33.9604 2 35.5556 3.34588 35.5556 5C 35.5556 6.30362 34.5646 7.41513 33.1852 7.828L 33.1852 5C 33.1852 4.44775 32.6545 4 32 4C 31.3455 4 30.8148 4.44775 30.8148 5L 30.8148 7.828C 29.4354 7.41513 28.4444 6.30362 28.4444 5ZM 32 62C 15.6622 62 2.37037 50.785 2.37037 37C 2.37037 23.215 15.6622 12 32 12C 48.3378 12 61.6296 23.215 61.6296 37C 61.6296 50.785 48.3378 62 32 62Z"/>
<path id="path1_fill" d="M 50.4847 10.9535C 50.1415 10.4833 49.4116 10.3366 48.8541 10.6265C 48.2967 10.9161 48.1233 11.5321 48.4665 12.0024C 50.8751 15.3015 52.1481 19.1044 52.1481 23C 52.1481 34.5795 40.9831 44 27.2593 44C 13.5354 44 2.37037 34.5795 2.37037 23C 2.37037 11.4205 13.5354 2 27.2593 2C 31.8747 2 36.3803 3.07337 40.2893 5.10425C 40.8468 5.39362 41.5767 5.2475 41.9199 4.777C 42.2631 4.30675 42.0895 3.69075 41.532 3.40112C 37.2493 1.17613 32.3138 0 27.2593 0C 12.2284 0 0 10.3177 0 23C 0 35.6823 12.2284 46 27.2593 46C 42.2901 46 54.5185 35.6823 54.5185 23C 54.5185 18.7337 53.1236 14.5681 50.4847 10.9535Z"/>
<path id="path2_fill" d="M 0.394862 1.74505C 1.08094 2.2633 1.74034 2.81955 2.35471 3.39867C 2.58879 3.61942 2.91279 3.7318 3.23827 3.7318C 3.5196 3.7318 3.80212 3.64767 4.02834 3.47692C 4.51605 3.10867 4.55753 2.47642 4.12094 2.06492C 3.44849 1.43105 2.72672 0.822047 1.9756 0.254922C 1.4879 -0.113578 0.738564 -0.0783274 0.30212 0.333173C -0.134473 0.744673 -0.0929901 1.3768 0.394862 1.74505Z"/>
<path id="path3_fill" d="M 8.58296 1.0545C 6.26474 0.372251 3.7757 0 1.18519 0C 0.530667 0 0 0.44775 0 1L 0 7.99975L 0 8.00038L 0 13.9998L 0 14.0004L 0 19C 0 19.2652 0.124889 19.5195 0.347111 19.7071L 15.4321 32.435C 15.6636 32.6303 15.9668 32.7279 16.2702 32.7279C 16.5736 32.7279 16.8769 32.6303 17.1083 32.435C 21.3613 28.8464 23.7037 24.0751 23.7037 19C 23.7037 17.406 23.4686 15.8576 23.0283 14.3771C 23.0196 14.3355 23.0076 14.2945 22.9924 14.254C 22.5197 12.7085 21.8207 11.239 20.9289 9.87125C 20.8964 9.8065 20.8551 9.7445 20.8058 9.68563C 19.9618 8.42488 18.9527 7.25275 17.8024 6.19113C 17.7674 6.15125 17.7299 6.1125 17.6871 6.07637C 17.6639 6.05675 17.6394 6.03888 17.6148 6.02138C 15.188 3.83563 12.1578 2.133 8.75022 1.10438C 8.6957 1.08413 8.64 1.0675 8.58296 1.0545ZM 11.1111 4.21075L 2.37037 11.5858L 2.37037 8.41425L 8.56978 3.18337C 9.44874 3.47662 10.2975 3.82038 11.1111 4.21075ZM 15.1775 6.77987L 2.37037 17.5858L 2.37037 14.4142L 13.1415 5.32612C 13.8576 5.77312 14.5382 6.2585 15.1775 6.77987ZM 18.3483 10.1044L 5.33333 21.0858L 3.45393 19.5L 16.7841 8.25275C 17.3523 8.83875 17.8754 9.45713 18.3483 10.1044ZM 20.535 14.2595L 8.88889 24.0859L 7.00948 22.5L 19.5159 11.9478C 19.9193 12.6913 20.2606 13.4635 20.535 14.2595ZM 21.3333 19C 21.3333 19.1996 21.328 19.3985 21.3199 19.597L 12.4444 27.0858L 10.565 25.5L 21.1299 16.5859C 21.2634 17.3748 21.3333 18.1806 21.3333 19ZM 6.02978 2.498L 2.37037 5.58575L 2.37037 2.029C 3.6243 2.09075 4.84726 2.25075 6.02978 2.498ZM 16.2461 30.2934L 14.1206 28.5L 20.8176 22.8494C 20.0664 25.6013 18.5092 28.1504 16.2461 30.2934Z"/>
</defs>
</svg>
