<svg width="64" height="64" viewBox="0 0 64 64" version="1.1" xmlns="http://www.w3.org/2000/svg" xmlns:xlink="http://www.w3.org/1999/xlink">
<title>camera</title>
<desc>Created using Figma</desc>
<g id="Canvas" transform="translate(-183 -887)">
<g id="camera">
<g id="Group">
<g id="Vector">
<use xlink:href="#path0_fill" transform="translate(183 887)"/>
</g>
<g id="Vector">
<use xlink:href="#path1_fill" transform="translate(193.464 902.905)"/>
</g>
</g>
</g>
</g>
<defs>
<path id="path0_fill" d="M 63.9982 25.2963C 63.9727 24.593 63.6469 23.2892 61.7512 22.4597L 11.212 0.362782C 8.62139 -0.770674 5.74638 0.840904 4.80338 3.95614L 3.43526 8.47569C 3.43526 8.47569 3.43513 8.47614 3.43501 8.47644L 0.357126 18.6451C -0.585751 21.7605 0.754751 25.2172 3.34588 26.3513L 18.0754 32.7902C 17.7955 34.8374 18.2624 36.86 19.2787 38.4074L 16.1409 48.773C 15.9965 49.25 15.6155 49.5706 15.1929 49.5706L 6.00001 49.5706L 6.00001 45.9633C 6.00001 43.9743 4.65426 42.356 3.00001 42.356L 1 42.356C 0.447751 42.356 0 42.8944 0 43.5584L 0 62.7976C 0 63.4616 0.447751 64 1 64L 3.00001 64C 4.65426 64 6.00001 62.3817 6.00001 60.3927L 6.00001 56.7853L 15.1929 56.7853C 18.1289 56.7853 20.7757 54.5566 21.779 51.2396L 24.8508 41.0919C 26.6087 40.7952 28.2062 39.561 29.1544 37.6335L 46.3673 45.1581C 46.93 45.4043 47.5057 45.5211 48.0725 45.5211C 49.7913 45.521 51.4246 44.4466 52.3392 42.6533L 54.3145 43.5177C 54.5376 43.6152 54.7688 43.6639 54.9995 43.6639C 55.2873 43.6639 55.5742 43.5882 55.8428 43.4376C 56.3267 43.1663 56.6937 42.6845 56.8762 42.0815L 59.6134 33.0388C 59.9462 31.939 59.5663 30.7337 58.7597 30.1547L 61.9655 28.3574C 63.7937 27.3323 64.0237 25.9995 63.9982 25.2963ZM 4.00001 60.3927C 4.00001 61.0557 3.55138 61.5951 3.00001 61.5951L 2 61.5951L 2 44.7609L 3.00001 44.7609C 3.55138 44.7609 4.00001 45.3003 4.00001 45.9633L 4.00001 60.3927ZM 19.8997 50.4173C 19.1825 52.7878 17.291 54.3804 15.1929 54.3804L 6.00001 54.3804L 6.00001 51.9755L 15.1929 51.9755C 16.4532 51.9755 17.5893 51.0191 18.0203 49.5956L 20.8909 40.1122C 21.2203 40.3501 21.5732 40.5544 21.9479 40.7184C 22.2139 40.8349 22.4823 40.927 22.7512 40.9969L 19.8997 50.4173ZM 24.138 38.7513C 24.1149 38.7512 24.0919 38.7512 24.0689 38.7528C 23.5927 38.7605 23.1068 38.6664 22.6319 38.4585C 22.076 38.2152 21.5913 37.8408 21.1942 37.3744C 21.1578 37.3212 21.1174 37.2719 21.0733 37.2266C 20.3285 36.2728 19.9298 34.9779 20.0053 33.6339L 27.225 36.79C 26.4945 37.9963 25.351 38.7064 24.138 38.7513ZM 57.7342 32.2163L 54.9988 41.258L 53.1181 40.4349L 55.7126 31.8634L 56.2437 31.5657L 57.7342 32.2163ZM 61.1205 26.1778L 55.7746 29.1752C 55.774 29.1755 55.7735 29.1758 55.773 29.1761L 54.4927 29.894C 54.4922 29.8943 54.4918 29.8944 54.4913 29.8947L 52.9903 30.7363C 51.2288 31.7239 48.1975 31.883 46.3706 31.0835L 17.4444 18.4456C 16.9255 18.2191 16.3517 18.5411 16.163 19.1651C 15.9744 19.7894 16.2423 20.4791 16.7614 20.7061L 45.6871 33.3436C 46.6936 33.7842 47.9342 33.9987 49.2002 33.9987C 50.5843 33.9987 51.9976 33.7409 53.1672 33.2417L 50.897 40.7421C 50.3312 42.6113 48.6062 43.5784 47.0515 42.898L 4.02951 24.0913C 2.475 23.411 1.67075 21.3369 2.2365 19.4677L 3.94751 13.815C 4.51813 14.8698 5.36676 15.7192 6.42376 16.1819L 7.36376 16.5931C 7.88226 16.8204 8.45651 16.4984 8.64539 15.8743C 8.83427 15.2504 8.56664 14.5604 8.04764 14.3333L 7.10776 13.922C 5.55351 13.2417 4.74913 11.1681 5.31451 9.29906L 5.65676 8.16831C 5.65676 8.16831 5.65688 8.16801 5.65688 8.16786L 6.68276 4.77862C 7.24864 2.90941 8.97351 1.94189 10.5283 2.62263L 61.0675 24.7197C 61.7095 25.0006 61.947 25.2934 61.9952 25.4013C 61.955 25.5141 61.7397 25.8304 61.1205 26.1778Z"/>
<path id="path1_fill" d="M 3.22196 0.895723L 1.34233 0.0729496C 0.823457 -0.154463 0.249581 0.167641 0.0605809 0.79156C -0.128294 1.41548 0.139206 2.10553 0.658207 2.3328L 2.53784 3.15557C 2.65071 3.20502 2.76621 3.22832 2.87984 3.22832C 3.28834 3.22832 3.67171 2.925 3.81959 2.43681C 4.00859 1.81304 3.74096 1.12299 3.22196 0.895723Z"/>
</defs>
</svg>
