<svg width="64" height="64" viewBox="0 0 64 64" version="1.1" xmlns="http://www.w3.org/2000/svg" xmlns:xlink="http://www.w3.org/1999/xlink">
<title>calendar</title>
<desc>Created using Figma</desc>
<g id="Canvas" transform="translate(-525 -887)">
<g id="calendar">
<g id="Group">
<g id="Vector">
<use xlink:href="#path0_fill" transform="translate(562.517 924.517)"/>
</g>
<g id="Vector">
<use xlink:href="#path1_fill" transform="translate(574.655 930.034)"/>
</g>
<g id="Vector">
<use xlink:href="#path2_fill" transform="translate(532.724 910.172)"/>
</g>
<g id="Vector">
<use xlink:href="#path3_fill" transform="translate(525 887)"/>
</g>
</g>
</g>
</g>
<defs>
<path id="path0_fill" d="M 13.2414 0C 5.93986 0 0 5.93986 0 13.2414C 0 20.5429 5.93986 26.4828 13.2414 26.4828C 20.5429 26.4828 26.4828 20.5429 26.4828 13.2414C 26.4828 5.93986 20.5429 0 13.2414 0ZM 13.2414 24.2759C 7.15697 24.2759 2.2069 19.3258 2.2069 13.2414C 2.2069 7.15697 7.15697 2.2069 13.2414 2.2069C 19.3258 2.2069 24.2759 7.15697 24.2759 13.2414C 24.2759 19.3258 19.3258 24.2759 13.2414 24.2759Z"/>
<path id="path1_fill" d="M 7.72414 6.62069L 2.2069 6.62069L 2.2069 1.10345C 2.2069 0.493241 1.71366 0 1.10345 0C 0.493241 0 0 0.493241 0 1.10345L 0 7.72414C 0 8.33434 0.493241 8.82759 1.10345 8.82759L 7.72414 8.82759C 8.33434 8.82759 8.82759 8.33434 8.82759 7.72414C 8.82759 7.11393 8.33434 6.62069 7.72414 6.62069Z"/>
<path id="path2_fill" d="M 22.069 0L 19.8621 0L 12.1379 0L 9.93103 0L 0 0L 0 9.93103L 0 12.1379L 0 19.8621L 0 22.069L 0 32L 9.93103 32L 12.1379 32L 22.069 32L 22.069 22.069L 22.069 19.8621L 22.069 12.1379L 29.7931 12.1379L 32 12.1379L 41.931 12.1379L 41.931 0L 32 0L 29.7931 0L 22.069 0ZM 32 2.2069L 39.7241 2.2069L 39.7241 9.93103L 32 9.93103L 32 2.2069ZM 12.1379 2.2069L 19.8621 2.2069L 19.8621 9.93103L 12.1379 9.93103L 12.1379 2.2069ZM 2.2069 2.2069L 9.93103 2.2069L 9.93103 9.93103L 2.2069 9.93103L 2.2069 2.2069ZM 2.2069 12.1379L 9.93103 12.1379L 9.93103 19.8621L 2.2069 19.8621L 2.2069 12.1379ZM 9.93103 29.7931L 2.2069 29.7931L 2.2069 22.069L 9.93103 22.069L 9.93103 29.7931ZM 19.8621 29.7931L 12.1379 29.7931L 12.1379 22.069L 19.8621 22.069L 19.8621 29.7931ZM 19.8621 19.8621L 12.1379 19.8621L 12.1379 12.1379L 19.8621 12.1379L 19.8621 19.8621ZM 29.7931 9.93103L 22.069 9.93103L 22.069 2.2069L 29.7931 2.2069L 29.7931 9.93103Z"/>
<path id="path3_fill" d="M 36.4138 60.6897L 2.2069 60.6897L 2.2069 17.6552L 55.1724 17.6552L 55.1724 32C 55.1724 32.6102 55.6657 33.1034 56.2759 33.1034C 56.8861 33.1034 57.3793 32.6102 57.3793 32L 57.3793 16.5517L 57.3793 5.51724C 57.3793 4.90703 56.8861 4.41379 56.2759 4.41379L 50.7586 4.41379L 50.7586 1.10345C 50.7586 0.493241 50.2654 0 49.6552 0L 41.931 0C 41.3208 0 40.8276 0.493241 40.8276 1.10345L 40.8276 4.41379L 16.5517 4.41379L 16.5517 1.10345C 16.5517 0.493241 16.0585 0 15.4483 0L 7.72414 0C 7.11393 0 6.62069 0.493241 6.62069 1.10345L 6.62069 4.41379L 1.10345 4.41379C 0.493241 4.41379 0 4.90703 0 5.51724L 0 16.5517L 0 61.7931C 0 62.4033 0.493241 62.8966 1.10345 62.8966L 36.4138 62.8966C 37.024 62.8966 37.5172 62.4033 37.5172 61.7931C 37.5172 61.1829 37.024 60.6897 36.4138 60.6897ZM 43.0345 2.2069L 48.5517 2.2069L 48.5517 5.51724L 48.5517 8.82759L 43.0345 8.82759L 43.0345 5.51724L 43.0345 2.2069ZM 8.82759 2.2069L 14.3448 2.2069L 14.3448 5.51724L 14.3448 8.82759L 8.82759 8.82759L 8.82759 5.51724L 8.82759 2.2069ZM 2.2069 6.62069L 6.62069 6.62069L 6.62069 9.93103C 6.62069 10.5412 7.11393 11.0345 7.72414 11.0345L 15.4483 11.0345C 16.0585 11.0345 16.5517 10.5412 16.5517 9.93103L 16.5517 6.62069L 40.8276 6.62069L 40.8276 9.93103C 40.8276 10.5412 41.3208 11.0345 41.931 11.0345L 49.6552 11.0345C 50.2654 11.0345 50.7586 10.5412 50.7586 9.93103L 50.7586 6.62069L 55.1724 6.62069L 55.1724 15.4483L 2.2069 15.4483L 2.2069 6.62069Z"/>
</defs>
</svg>
